<svg xmlns="http://www.w3.org/2000/svg" xmlns:xlink="http://www.w3.org/1999/xlink" width="1920" zoomAndPan="magnify" viewBox="0 0 1440 809.999993" height="1080" preserveAspectRatio="xMidYMid meet" version="1.0"><defs><filter x="0%" y="0%" width="100%" height="100%" id="9aff51ee48"><feColorMatrix values="0 0 0 0 1 0 0 0 0 1 0 0 0 0 1 0 0 0 1 0" color-interpolation-filters="sRGB"/></filter><mask id="8210b56b2c"><g filter="url(#9aff51ee48)"><rect x="-144" width="1728" fill="#000000" y="-80.999999" height="971.999992" fill-opacity="0.3"/></g></mask><clipPath id="b9bb6b8a74"><path d="M 0.398438 0.398438 L 655.359375 0.398438 L 655.359375 152 L 0.398438 152 Z M 0.398438 0.398438 " clip-rule="nonzero"/></clipPath><clipPath id="20976f0c12"><rect x="0" width="656" y="0" height="164"/></clipPath><mask id="d257bc95a8"><g filter="url(#9aff51ee48)"><rect x="-144" width="1728" fill="#000000" y="-80.999999" height="971.999992" fill-opacity="0.3"/></g></mask><clipPath id="c6acb174ca"><path d="M 0.398438 0.398438 L 655.359375 0.398438 L 655.359375 152 L 0.398438 152 Z M 0.398438 0.398438 " clip-rule="nonzero"/></clipPath><clipPath id="f3cac0a33a"><rect x="0" width="656" y="0" height="164"/></clipPath><mask id="d0eef81e1b"><g filter="url(#9aff51ee48)"><rect x="-144" width="1728" fill="#000000" y="-80.999999" height="971.999992" fill-opacity="0.3"/></g></mask><clipPath id="0af6cd8c60"><path d="M 0.398438 0.398438 L 655.359375 0.398438 L 655.359375 152 L 0.398438 152 Z M 0.398438 0.398438 " clip-rule="nonzero"/></clipPath><clipPath id="361c415b08"><rect x="0" width="656" y="0" height="164"/></clipPath><mask id="24e200904f"><g filter="url(#9aff51ee48)"><rect x="-144" width="1728" fill="#000000" y="-80.999999" height="971.999992" fill-opacity="0.3"/></g></mask><clipPath id="02099c9b0d"><path d="M 0.398438 0.640625 L 655.359375 0.640625 L 655.359375 153 L 0.398438 153 Z M 0.398438 0.640625 " clip-rule="nonzero"/></clipPath><clipPath id="ca7d4e2dcc"><rect x="0" width="656" y="0" height="164"/></clipPath><mask id="4ec647db31"><g filter="url(#9aff51ee48)"><rect x="-144" width="1728" fill="#000000" y="-80.999999" height="971.999992" fill-opacity="0.3"/></g></mask><clipPath id="a02b7ac65f"><path d="M 0.398438 0.640625 L 655.359375 0.640625 L 655.359375 153 L 0.398438 153 Z M 0.398438 0.640625 " clip-rule="nonzero"/></clipPath><clipPath id="41b7f353c0"><rect x="0" width="656" y="0" height="164"/></clipPath><mask id="1b18788c48"><g filter="url(#9aff51ee48)"><rect x="-144" width="1728" fill="#000000" y="-80.999999" height="971.999992" fill-opacity="0.3"/></g></mask><clipPath id="f08d0c66ec"><path d="M 0.398438 0.640625 L 655.359375 0.640625 L 655.359375 153 L 0.398438 153 Z M 0.398438 0.640625 " clip-rule="nonzero"/></clipPath><clipPath id="da783546a9"><rect x="0" width="656" y="0" height="164"/></clipPath></defs><g mask="url(#8210b56b2c)"><g transform="matrix(1, 0, 0, 1, 392, 266)"><g clip-path="url(#20976f0c12)"><g clip-path="url(#b9bb6b8a74)"><path stroke-linecap="butt" transform="matrix(0.75, 0, 0, 0.75, -227.451056, -12.912786)" fill="none" stroke-linejoin="miter" d="M 320.377465 179.998307 L 342.86705 179.998307 L 342.86705 127.763929 L 401.304553 127.763929 L 401.304553 107.13372 L 342.86705 107.13372 L 342.86705 75.524343 L 409.09622 75.524343 L 409.09622 54.894134 L 320.377465 54.894134 Z M 429.726429 179.998307 L 452.216014 179.998307 L 452.216014 54.894134 L 429.726429 54.894134 Z M 484.445182 179.998307 L 506.044141 179.998307 L 506.044141 92.258719 L 558.460811 179.998307 L 580.950395 179.998307 L 580.950395 54.894134 L 559.346227 54.894134 L 559.346227 142.456638 L 506.752475 54.894134 L 484.445182 54.894134 Z M 598.127479 179.998307 L 622.653522 179.998307 L 632.393106 152.816014 L 681.002483 152.816014 L 690.653526 179.998307 L 714.908735 179.998307 L 665.064983 54.894134 L 648.242065 54.894134 Z M 640.00769 133.602471 L 656.742066 87.920177 L 673.3879 133.602471 Z M 732.085819 179.998307 L 753.689987 179.998307 L 753.689987 92.258719 L 806.106656 179.998307 L 828.596241 179.998307 L 828.596241 54.894134 L 806.992073 54.894134 L 806.992073 142.456638 L 754.39832 54.894134 L 732.085819 54.894134 Z M 849.934784 179.998307 L 950.778539 179.998307 L 950.778539 159.722264 L 881.361869 159.722264 L 950.778539 71.185801 L 950.778539 54.894134 L 853.919159 54.894134 L 853.919159 75.524343 L 919.788954 75.524343 L 849.934784 164.414973 Z M 958.393122 179.998307 L 982.919165 179.998307 L 992.658749 152.816014 L 1041.268127 152.816014 L 1050.919169 179.998307 L 1075.179587 179.998307 L 1025.330626 54.894134 L 1008.507708 54.894134 Z M 1000.273333 133.602471 L 1017.007709 87.920177 L 1033.653543 133.602471 Z M 1128.122298 181.414973 C 1152.028549 181.414973 1171.596258 167.159764 1171.596258 143.519138 C 1171.596258 101.998303 1111.033755 109.967053 1111.033755 86.414969 C 1111.033755 78.446218 1117.940005 73.045176 1126.794173 73.045176 C 1135.205631 73.045176 1142.643132 77.914968 1146.981674 86.414969 L 1165.663966 74.993093 C 1157.075424 59.763926 1142.997298 53.034759 1127.591048 53.034759 C 1106.51813 53.034759 1088.544171 65.430593 1088.544171 87.56601 C 1088.544171 128.295179 1149.106674 119.618095 1149.106674 145.555597 C 1149.106674 154.409764 1141.846257 161.493097 1128.476464 161.493097 C 1115.195214 161.493097 1104.127505 154.586847 1102.533755 139.003513 L 1080.221254 144.67018 C 1084.205629 169.284765 1105.98688 181.414973 1128.122298 181.414973 Z M 1128.122298 181.414973 " stroke="#6ce5e8" stroke-width="6.799987" stroke-opacity="1" stroke-miterlimit="4"/></g></g></g></g><g mask="url(#d257bc95a8)"><g transform="matrix(1, 0, 0, 1, 392, 152)"><g clip-path="url(#f3cac0a33a)"><g clip-path="url(#c6acb174ca)"><path stroke-linecap="butt" transform="matrix(0.75, 0, 0, 0.75, -227.451056, -12.998693)" fill="none" stroke-linejoin="miter" d="M 320.377465 179.998266 L 342.86705 179.998266 L 342.86705 127.763889 L 401.304553 127.763889 L 401.304553 107.133679 L 342.86705 107.133679 L 342.86705 75.524303 L 409.09622 75.524303 L 409.09622 54.894094 L 320.377465 54.894094 Z M 429.726429 179.998266 L 452.216014 179.998266 L 452.216014 54.894094 L 429.726429 54.894094 Z M 484.445182 179.998266 L 506.044141 179.998266 L 506.044141 92.258679 L 558.460811 179.998266 L 580.950395 179.998266 L 580.950395 54.894094 L 559.346227 54.894094 L 559.346227 142.456598 L 506.752475 54.894094 L 484.445182 54.894094 Z M 598.127479 179.998266 L 622.653522 179.998266 L 632.393106 152.815973 L 681.002483 152.815973 L 690.653526 179.998266 L 714.908735 179.998266 L 665.064983 54.894094 L 648.242065 54.894094 Z M 640.00769 133.602431 L 656.742066 87.920137 L 673.3879 133.602431 Z M 732.085819 179.998266 L 753.689987 179.998266 L 753.689987 92.258679 L 806.106656 179.998266 L 828.596241 179.998266 L 828.596241 54.894094 L 806.992073 54.894094 L 806.992073 142.456598 L 754.39832 54.894094 L 732.085819 54.894094 Z M 849.934784 179.998266 L 950.778539 179.998266 L 950.778539 159.722224 L 881.361869 159.722224 L 950.778539 71.185761 L 950.778539 54.894094 L 853.919159 54.894094 L 853.919159 75.524303 L 919.788954 75.524303 L 849.934784 164.414932 Z M 958.393122 179.998266 L 982.919165 179.998266 L 992.658749 152.815973 L 1041.268127 152.815973 L 1050.919169 179.998266 L 1075.179587 179.998266 L 1025.330626 54.894094 L 1008.507708 54.894094 Z M 1000.273333 133.602431 L 1017.007709 87.920137 L 1033.653543 133.602431 Z M 1128.122298 181.414933 C 1152.028549 181.414933 1171.596258 167.159724 1171.596258 143.519098 C 1171.596258 101.998263 1111.033755 109.967013 1111.033755 86.414928 C 1111.033755 78.446178 1117.940005 73.045136 1126.794173 73.045136 C 1135.205631 73.045136 1142.643132 77.914928 1146.981674 86.414928 L 1165.663966 74.993053 C 1157.075424 59.763885 1142.997298 53.034718 1127.591048 53.034718 C 1106.51813 53.034718 1088.544171 65.430552 1088.544171 87.56597 C 1088.544171 128.295139 1149.106674 119.618055 1149.106674 145.555556 C 1149.106674 154.409724 1141.846257 161.493057 1128.476464 161.493057 C 1115.195214 161.493057 1104.127505 154.586807 1102.533755 139.003473 L 1080.221254 144.67014 C 1084.205629 169.284724 1105.98688 181.414933 1128.122298 181.414933 Z M 1128.122298 181.414933 " stroke="#6ce5e8" stroke-width="6.799987" stroke-opacity="1" stroke-miterlimit="4"/></g></g></g></g><g mask="url(#d0eef81e1b)"><g transform="matrix(1, 0, 0, 1, 392, 38)"><g clip-path="url(#361c415b08)"><g clip-path="url(#0af6cd8c60)"><path stroke-linecap="butt" transform="matrix(0.75, 0, 0, 0.75, -227.451056, -13.08463)" fill="none" stroke-linejoin="miter" d="M 320.377465 179.998265 L 342.86705 179.998265 L 342.86705 127.763888 L 401.304553 127.763888 L 401.304553 107.133678 L 342.86705 107.133678 L 342.86705 75.524302 L 409.09622 75.524302 L 409.09622 54.894092 L 320.377465 54.894092 Z M 429.726429 179.998265 L 452.216014 179.998265 L 452.216014 54.894092 L 429.726429 54.894092 Z M 484.445182 179.998265 L 506.044141 179.998265 L 506.044141 92.258678 L 558.460811 179.998265 L 580.950395 179.998265 L 580.950395 54.894092 L 559.346227 54.894092 L 559.346227 142.456597 L 506.752475 54.894092 L 484.445182 54.894092 Z M 598.127479 179.998265 L 622.653522 179.998265 L 632.393106 152.815972 L 681.002483 152.815972 L 690.653526 179.998265 L 714.908735 179.998265 L 665.064983 54.894092 L 648.242065 54.894092 Z M 640.00769 133.60243 L 656.742066 87.920136 L 673.3879 133.60243 Z M 732.085819 179.998265 L 753.689987 179.998265 L 753.689987 92.258678 L 806.106656 179.998265 L 828.596241 179.998265 L 828.596241 54.894092 L 806.992073 54.894092 L 806.992073 142.456597 L 754.39832 54.894092 L 732.085819 54.894092 Z M 849.934784 179.998265 L 950.778539 179.998265 L 950.778539 159.722223 L 881.361869 159.722223 L 950.778539 71.18576 L 950.778539 54.894092 L 853.919159 54.894092 L 853.919159 75.524302 L 919.788954 75.524302 L 849.934784 164.414931 Z M 958.393122 179.998265 L 982.919165 179.998265 L 992.658749 152.815972 L 1041.268127 152.815972 L 1050.919169 179.998265 L 1075.179587 179.998265 L 1025.330626 54.894092 L 1008.507708 54.894092 Z M 1000.273333 133.60243 L 1017.007709 87.920136 L 1033.653543 133.60243 Z M 1128.122298 181.414932 C 1152.028549 181.414932 1171.596258 167.159723 1171.596258 143.519097 C 1171.596258 101.998261 1111.033755 109.967012 1111.033755 86.414927 C 1111.033755 78.446177 1117.940005 73.045135 1126.794173 73.045135 C 1135.205631 73.045135 1142.643132 77.914927 1146.981674 86.414927 L 1165.663966 74.993052 C 1157.075424 59.763884 1142.997298 53.034717 1127.591048 53.034717 C 1106.51813 53.034717 1088.544171 65.430551 1088.544171 87.565969 C 1088.544171 128.295138 1149.106674 119.618054 1149.106674 145.555555 C 1149.106674 154.409722 1141.846257 161.493056 1128.476464 161.493056 C 1115.195214 161.493056 1104.127505 154.586806 1102.533755 139.003472 L 1080.221254 144.670138 C 1084.205629 169.284723 1105.98688 181.414932 1128.122298 181.414932 Z M 1128.122298 181.414932 " stroke="#6ce5e8" stroke-width="6.799987" stroke-opacity="1" stroke-miterlimit="4"/></g></g></g></g><g mask="url(#24e200904f)"><g transform="matrix(1, 0, 0, 1, 392, 608)"><g clip-path="url(#ca7d4e2dcc)"><g clip-path="url(#02099c9b0d)"><path stroke-linecap="butt" transform="matrix(0.75, 0, 0, 0.75, -227.451056, -12.654932)" fill="none" stroke-linejoin="miter" d="M 320.377465 179.998252 L 342.86705 179.998252 L 342.86705 127.763874 L 401.304553 127.763874 L 401.304553 107.133665 L 342.86705 107.133665 L 342.86705 75.524288 L 409.09622 75.524288 L 409.09622 54.894079 L 320.377465 54.894079 Z M 429.726429 179.998252 L 452.216014 179.998252 L 452.216014 54.894079 L 429.726429 54.894079 Z M 484.445182 179.998252 L 506.044141 179.998252 L 506.044141 92.258664 L 558.460811 179.998252 L 580.950395 179.998252 L 580.950395 54.894079 L 559.346227 54.894079 L 559.346227 142.456583 L 506.752475 54.894079 L 484.445182 54.894079 Z M 598.127479 179.998252 L 622.653522 179.998252 L 632.393106 152.815959 L 681.002483 152.815959 L 690.653526 179.998252 L 714.908735 179.998252 L 665.064983 54.894079 L 648.242065 54.894079 Z M 640.00769 133.602416 L 656.742066 87.920122 L 673.3879 133.602416 Z M 732.085819 179.998252 L 753.689987 179.998252 L 753.689987 92.258664 L 806.106656 179.998252 L 828.596241 179.998252 L 828.596241 54.894079 L 806.992073 54.894079 L 806.992073 142.456583 L 754.39832 54.894079 L 732.085819 54.894079 Z M 849.934784 179.998252 L 950.778539 179.998252 L 950.778539 159.722209 L 881.361869 159.722209 L 950.778539 71.185746 L 950.778539 54.894079 L 853.919159 54.894079 L 853.919159 75.524288 L 919.788954 75.524288 L 849.934784 164.414917 Z M 958.393122 179.998252 L 982.919165 179.998252 L 992.658749 152.815959 L 1041.268127 152.815959 L 1050.919169 179.998252 L 1075.179587 179.998252 L 1025.330626 54.894079 L 1008.507708 54.894079 Z M 1000.273333 133.602416 L 1017.007709 87.920122 L 1033.653543 133.602416 Z M 1128.122298 181.414918 C 1152.028549 181.414918 1171.596258 167.159709 1171.596258 143.519083 C 1171.596258 101.998248 1111.033755 109.966998 1111.033755 86.414914 C 1111.033755 78.446163 1117.940005 73.045121 1126.794173 73.045121 C 1135.205631 73.045121 1142.643132 77.914913 1146.981674 86.414914 L 1165.663966 74.993038 C 1157.075424 59.763871 1142.997298 53.034703 1127.591048 53.034703 C 1106.51813 53.034703 1088.544171 65.430537 1088.544171 87.565955 C 1088.544171 128.295124 1149.106674 119.61804 1149.106674 145.555541 C 1149.106674 154.409709 1141.846257 161.493042 1128.476464 161.493042 C 1115.195214 161.493042 1104.127505 154.586792 1102.533755 139.003458 L 1080.221254 144.670125 C 1084.205629 169.284709 1105.98688 181.414918 1128.122298 181.414918 Z M 1128.122298 181.414918 " stroke="#6ce5e8" stroke-width="6.799987" stroke-opacity="1" stroke-miterlimit="4"/></g></g></g></g><g mask="url(#4ec647db31)"><g transform="matrix(1, 0, 0, 1, 392, 494)"><g clip-path="url(#41b7f353c0)"><g clip-path="url(#a02b7ac65f)"><path stroke-linecap="butt" transform="matrix(0.75, 0, 0, 0.75, -227.451056, -12.740883)" fill="none" stroke-linejoin="miter" d="M 320.377465 179.99827 L 342.86705 179.99827 L 342.86705 127.763892 L 401.304553 127.763892 L 401.304553 107.133683 L 342.86705 107.133683 L 342.86705 75.524306 L 409.09622 75.524306 L 409.09622 54.894097 L 320.377465 54.894097 Z M 429.726429 179.99827 L 452.216014 179.99827 L 452.216014 54.894097 L 429.726429 54.894097 Z M 484.445182 179.99827 L 506.044141 179.99827 L 506.044141 92.258682 L 558.460811 179.99827 L 580.950395 179.99827 L 580.950395 54.894097 L 559.346227 54.894097 L 559.346227 142.456601 L 506.752475 54.894097 L 484.445182 54.894097 Z M 598.127479 179.99827 L 622.653522 179.99827 L 632.393106 152.815977 L 681.002483 152.815977 L 690.653526 179.99827 L 714.908735 179.99827 L 665.064983 54.894097 L 648.242065 54.894097 Z M 640.00769 133.602434 L 656.742066 87.92014 L 673.3879 133.602434 Z M 732.085819 179.99827 L 753.689987 179.99827 L 753.689987 92.258682 L 806.106656 179.99827 L 828.596241 179.99827 L 828.596241 54.894097 L 806.992073 54.894097 L 806.992073 142.456601 L 754.39832 54.894097 L 732.085819 54.894097 Z M 849.934784 179.99827 L 950.778539 179.99827 L 950.778539 159.722227 L 881.361869 159.722227 L 950.778539 71.185764 L 950.778539 54.894097 L 853.919159 54.894097 L 853.919159 75.524306 L 919.788954 75.524306 L 849.934784 164.414936 Z M 958.393122 179.99827 L 982.919165 179.99827 L 992.658749 152.815977 L 1041.268127 152.815977 L 1050.919169 179.99827 L 1075.179587 179.99827 L 1025.330626 54.894097 L 1008.507708 54.894097 Z M 1000.273333 133.602434 L 1017.007709 87.92014 L 1033.653543 133.602434 Z M 1128.122298 181.414937 C 1152.028549 181.414937 1171.596258 167.159728 1171.596258 143.519101 C 1171.596258 101.998266 1111.033755 109.967016 1111.033755 86.414932 C 1111.033755 78.446181 1117.940005 73.045139 1126.794173 73.045139 C 1135.205631 73.045139 1142.643132 77.914931 1146.981674 86.414932 L 1165.663966 74.993056 C 1157.075424 59.763889 1142.997298 53.034722 1127.591048 53.034722 C 1106.51813 53.034722 1088.544171 65.430556 1088.544171 87.565974 C 1088.544171 128.295142 1149.106674 119.618058 1149.106674 145.55556 C 1149.106674 154.409727 1141.846257 161.493061 1128.476464 161.493061 C 1115.195214 161.493061 1104.127505 154.58681 1102.533755 139.003476 L 1080.221254 144.670143 C 1084.205629 169.284728 1105.98688 181.414937 1128.122298 181.414937 Z M 1128.122298 181.414937 " stroke="#6ce5e8" stroke-width="6.799987" stroke-opacity="1" stroke-miterlimit="4"/></g></g></g></g><g mask="url(#1b18788c48)"><g transform="matrix(1, 0, 0, 1, 392, 380)"><g clip-path="url(#da783546a9)"><g clip-path="url(#f08d0c66ec)"><path stroke-linecap="butt" transform="matrix(0.75, 0, 0, 0.75, -227.451056, -12.826834)" fill="none" stroke-linejoin="miter" d="M 320.377465 179.998288 L 342.86705 179.998288 L 342.86705 127.763911 L 401.304553 127.763911 L 401.304553 107.133701 L 342.86705 107.133701 L 342.86705 75.524325 L 409.09622 75.524325 L 409.09622 54.894115 L 320.377465 54.894115 Z M 429.726429 179.998288 L 452.216014 179.998288 L 452.216014 54.894115 L 429.726429 54.894115 Z M 484.445182 179.998288 L 506.044141 179.998288 L 506.044141 92.2587 L 558.460811 179.998288 L 580.950395 179.998288 L 580.950395 54.894115 L 559.346227 54.894115 L 559.346227 142.45662 L 506.752475 54.894115 L 484.445182 54.894115 Z M 598.127479 179.998288 L 622.653522 179.998288 L 632.393106 152.815995 L 681.002483 152.815995 L 690.653526 179.998288 L 714.908735 179.998288 L 665.064983 54.894115 L 648.242065 54.894115 Z M 640.00769 133.602452 L 656.742066 87.920159 L 673.3879 133.602452 Z M 732.085819 179.998288 L 753.689987 179.998288 L 753.689987 92.2587 L 806.106656 179.998288 L 828.596241 179.998288 L 828.596241 54.894115 L 806.992073 54.894115 L 806.992073 142.45662 L 754.39832 54.894115 L 732.085819 54.894115 Z M 849.934784 179.998288 L 950.778539 179.998288 L 950.778539 159.722245 L 881.361869 159.722245 L 950.778539 71.185783 L 950.778539 54.894115 L 853.919159 54.894115 L 853.919159 75.524325 L 919.788954 75.524325 L 849.934784 164.414954 Z M 958.393122 179.998288 L 982.919165 179.998288 L 992.658749 152.815995 L 1041.268127 152.815995 L 1050.919169 179.998288 L 1075.179587 179.998288 L 1025.330626 54.894115 L 1008.507708 54.894115 Z M 1000.273333 133.602452 L 1017.007709 87.920159 L 1033.653543 133.602452 Z M 1128.122298 181.414955 C 1152.028549 181.414955 1171.596258 167.159746 1171.596258 143.51912 C 1171.596258 101.998284 1111.033755 109.967035 1111.033755 86.41495 C 1111.033755 78.4462 1117.940005 73.045158 1126.794173 73.045158 C 1135.205631 73.045158 1142.643132 77.91495 1146.981674 86.41495 L 1165.663966 74.993075 C 1157.075424 59.763907 1142.997298 53.03474 1127.591048 53.03474 C 1106.51813 53.03474 1088.544171 65.430574 1088.544171 87.565992 C 1088.544171 128.295161 1149.106674 119.618077 1149.106674 145.555578 C 1149.106674 154.409745 1141.846257 161.493079 1128.476464 161.493079 C 1115.195214 161.493079 1104.127505 154.586829 1102.533755 139.003494 L 1080.221254 144.670161 C 1084.205629 169.284746 1105.98688 181.414955 1128.122298 181.414955 Z M 1128.122298 181.414955 " stroke="#6ce5e8" stroke-width="6.799987" stroke-opacity="1" stroke-miterlimit="4"/></g></g></g></g></svg>